<?xml version="1.0" encoding="UTF-8"?>
<svg width="150px" height="150px" viewBox="0 0 150 150" version="1.1" xmlns="http://www.w3.org/2000/svg" xmlns:xlink="http://www.w3.org/1999/xlink">
    <title>Knowledge Planet</title>
    <defs>
        <!-- Planet gradient -->
        <radialGradient id="planetGradient" cx="30%" cy="30%" r="70%">
            <stop offset="0%" stop-color="#CCFF66" />
            <stop offset="60%" stop-color="#99DD33" />
            <stop offset="100%" stop-color="#669900" />
        </radialGradient>
        
        <!-- Glow effect -->
        <filter id="glow" x="-20%" y="-20%" width="140%" height="140%">
            <feGaussianBlur stdDeviation="4" result="blur" />
            <feColorMatrix in="blur" mode="matrix" values="1 0 0 0 0.6  0 1 0 0 1  0 0 1 0 0.2  0 0 0 18 -7" result="glow" />
            <feBlend in="SourceGraphic" in2="glow" mode="normal" />
        </filter>
    </defs>
    
    <g id="knowledge-planet" stroke="none" stroke-width="1" fill="none" fill-rule="evenodd">
        <!-- Planet Base -->
        <circle id="planet-base" fill="url(#planetGradient)" cx="75" cy="75" r="65" filter="url(#glow)"></circle>
        
        <!-- Knowledge ring -->
        <ellipse id="knowledge-ring" stroke="#FFFFFF" stroke-width="5" cx="75" cy="75" rx="55" ry="20" fill="none" opacity="0.6" transform="rotate(15 75 75)"></ellipse>
        <ellipse id="knowledge-ring2" stroke="#FFFFFF" stroke-width="5" cx="75" cy="75" rx="55" ry="20" fill="none" opacity="0.6" transform="rotate(75 75 75)"></ellipse>
        
        <!-- Knowledge elements -->
        <!-- Open book -->
        <path d="M60,80 L60,55 C60,55 70,50 75,55 C80,60 90,55 90,55 L90,80 C90,80 80,85 75,80 C70,75 60,80 60,80 Z" id="book-base" fill="#FFFFFF"></path>
        <path d="M75,55 L75,80" id="book-crease" stroke="#CCCCCC" stroke-width="1"></path>
        
        <path d="M65,60 L70,60" id="text-line1" stroke="#000000" stroke-width="1"></path>
        <path d="M65,65 L70,65" id="text-line2" stroke="#000000" stroke-width="1"></path>
        <path d="M65,70 L70,70" id="text-line3" stroke="#000000" stroke-width="1"></path>
        
        <path d="M80,60 L85,60" id="text-line4" stroke="#000000" stroke-width="1"></path>
        <path d="M80,65 L85,65" id="text-line5" stroke="#000000" stroke-width="1"></path>
        <path d="M80,70 L85,70" id="text-line6" stroke="#000000" stroke-width="1"></path>
        
        <!-- Atom symbol -->
        <circle id="atom-nucleus" fill="#FFFFFF" cx="40" cy="45" r="5"></circle>
        <ellipse id="atom-orbit1" stroke="#FFFFFF" stroke-width="2" cx="40" cy="45" rx="15" ry="5" fill="none" transform="rotate(30 40 45)"></ellipse>
        <ellipse id="atom-orbit2" stroke="#FFFFFF" stroke-width="2" cx="40" cy="45" rx="15" ry="5" fill="none" transform="rotate(90 40 45)"></ellipse>
        <ellipse id="atom-orbit3" stroke="#FFFFFF" stroke-width="2" cx="40" cy="45" rx="15" ry="5" fill="none" transform="rotate(150 40 45)"></ellipse>
        
        <!-- Math symbols -->
        <path d="M100,35 L110,35 M105,30 L105,40" id="plus" stroke="#FFFFFF" stroke-width="3"></path>
        <path d="M100,50 L110,50" id="minus" stroke="#FFFFFF" stroke-width="3"></path>
        <path d="M100,65 L110,65 M100,65 L105,60 L110,65 L105,70 L100,65" id="multiply" stroke="#FFFFFF" stroke-width="3" fill="none"></path>
        <path d="M100,80 L110,80 M105,75 L105,85" id="divide-line" stroke="#FFFFFF" stroke-width="3"></path>
        <circle id="divide-dot1" fill="#FFFFFF" cx="105" cy="77" r="1"></circle>
        <circle id="divide-dot2" fill="#FFFFFF" cx="105" cy="83" r="1"></circle>
        
        <!-- Light bulb -->
        <circle id="bulb" fill="#FFFF33" cx="40" cy="100" r="10" opacity="0.8"></circle>
        <path d="M40,110 L40,115" id="bulb-base-line" stroke="#FFFFFF" stroke-width="2"></path>
        <path d="M35,115 L45,115" id="bulb-base1" stroke="#FFFFFF" stroke-width="2"></path>
        <path d="M37,118 L43,118" id="bulb-base2" stroke="#FFFFFF" stroke-width="2"></path>
    </g>
</svg> 