<?xml version="1.0" encoding="UTF-8"?>
<svg width="150px" height="150px" viewBox="0 0 150 150" version="1.1" xmlns="http://www.w3.org/2000/svg" xmlns:xlink="http://www.w3.org/1999/xlink">
    <title>Adventure Planet</title>
    <defs>
        <!-- Planet gradient -->
        <radialGradient id="planetGradient" cx="30%" cy="30%" r="70%">
            <stop offset="0%" stop-color="#66CCFF" />
            <stop offset="60%" stop-color="#4499FF" />
            <stop offset="100%" stop-color="#0055BB" />
        </radialGradient>
        
        <!-- Glow effect -->
        <filter id="glow" x="-20%" y="-20%" width="140%" height="140%">
            <feGaussianBlur stdDeviation="4" result="blur" />
            <feColorMatrix in="blur" mode="matrix" values="1 0 0 0 0.2  0 1 0 0 0.5  0 0 1 0 1  0 0 0 18 -7" result="glow" />
            <feBlend in="SourceGraphic" in2="glow" mode="normal" />
        </filter>
    </defs>
    
    <g id="adventure-planet" stroke="none" stroke-width="1" fill="none" fill-rule="evenodd">
        <!-- Planet Base -->
        <circle id="planet-base" fill="url(#planetGradient)" cx="75" cy="75" r="65" filter="url(#glow)"></circle>
        
        <!-- Continents -->
        <path d="M40,40 C50,35 70,30 80,40 C90,50 100,45 105,55 C110,65 105,80 95,85 C85,90 75,100 65,95 C55,90 45,95 40,85 C35,75 30,45 40,40 Z" id="continent1" fill="#00AA66" opacity="0.8"></path>
        
        <path d="M30,70 C25,65 30,55 35,50 C40,45 30,60 40,65 C50,70 45,75 35,75 C25,75 35,75 30,70 Z" id="continent2" fill="#00AA66" opacity="0.8"></path>
        
        <path d="M95,30 C100,25 110,35 115,40 C120,45 110,50 105,45 C100,40 90,35 95,30 Z" id="continent3" fill="#00AA66" opacity="0.8"></path>
        
        <!-- Clouds -->
        <path d="M30,30 C35,25 45,25 50,30 C55,35 65,35 70,30 C75,25 65,40 60,45 C55,50 45,50 40,45 C35,40 25,35 30,30 Z" id="cloud1" fill="#FFFFFF" opacity="0.5"></path>
        
        <path d="M80,100 C85,95 95,95 100,100 C105,105 115,105 120,100 C125,95 115,110 110,115 C105,120 95,120 90,115 C85,110 75,105 80,100 Z" id="cloud2" fill="#FFFFFF" opacity="0.5"></path>
        
        <!-- Adventure elements -->
        <!-- Mountain with flag -->
        <path d="M75,75 L90,105 L60,105 Z" id="mountain" fill="#996633"></path>
        <path d="M75,55 L75,75 L85,70 Z" id="flag" fill="#FF4422"></path>
        <rect id="flagpole" x="74" y="55" width="2" height="20" fill="#000000"></rect>
        
        <!-- Compass -->
        <circle id="compass-base" stroke="#FFCC00" stroke-width="2" cx="40" cy="40" r="10" fill="#FFFFFF" opacity="0.8"></circle>
        <line id="compass-n" x1="40" y1="30" x2="40" y2="36" stroke="#FF0000" stroke-width="2"></line>
        <line id="compass-s" x1="40" y1="44" x2="40" y2="50" stroke="#000000" stroke-width="2"></line>
        <line id="compass-e" x1="44" y1="40" x2="50" y2="40" stroke="#000000" stroke-width="2"></line>
        <line id="compass-w" x1="30" y1="40" x2="36" y2="40" stroke="#000000" stroke-width="2"></line>
        
        <!-- Treasure chest -->
        <rect id="chest-base" x="100" y="85" width="15" height="10" fill="#AA6633"></rect>
        <path d="M100,85 L115,85 L110,80 L105,80 Z" id="chest-lid" fill="#884422"></path>
        <rect id="chest-lock" x="107" y="82" width="3" height="3" fill="#FFCC00"></rect>
    </g>
</svg> 