<?xml version="1.0" encoding="UTF-8"?>
<svg width="1000px" height="1000px" viewBox="0 0 1000 1000" version="1.1" xmlns="http://www.w3.org/2000/svg" xmlns:xlink="http://www.w3.org/1999/xlink">
    <title>Sky Background 1</title>
    <defs>
        <!-- Radial background gradient -->
        <radialGradient id="skyGradient" cx="50%" cy="50%" r="70%">
            <stop offset="0%" stop-color="#1A0B2E" />
            <stop offset="70%" stop-color="#100720" />
            <stop offset="100%" stop-color="#000000" />
        </radialGradient>
        
        <!-- Star glow filter -->
        <filter id="starGlow" x="-50%" y="-50%" width="200%" height="200%">
            <feGaussianBlur stdDeviation="1" result="blur" />
            <feColorMatrix in="blur" mode="matrix" values="1 0 0 0 1  0 1 0 0 1  0 0 1 0 1  0 0 0 18 -7" result="glow" />
            <feBlend in="SourceGraphic" in2="glow" mode="normal" />
        </filter>
    </defs>
    
    <g id="sky-background" stroke="none" stroke-width="1" fill="none" fill-rule="evenodd">
        <!-- Background Fill -->
        <rect id="bg" fill="url(#skyGradient)" x="0" y="0" width="1000" height="1000"></rect>
        
        <!-- Stars (randomly positioned) -->
        <g id="stars" fill="#FFFFFF" filter="url(#starGlow)">
            <!-- Large stars -->
            <circle cx="100" cy="150" r="1.5"></circle>
            <circle cx="300" cy="200" r="2"></circle>
            <circle cx="500" cy="100" r="1.8"></circle>
            <circle cx="700" cy="300" r="1.6"></circle>
            <circle cx="900" cy="150" r="1.7"></circle>
            <circle cx="150" cy="350" r="1.8"></circle>
            <circle cx="250" cy="450" r="1.9"></circle>
            <circle cx="350" cy="550" r="1.7"></circle>
            <circle cx="450" cy="650" r="1.6"></circle>
            <circle cx="550" cy="750" r="1.8"></circle>
            <circle cx="650" cy="850" r="1.9"></circle>
            <circle cx="750" cy="950" r="1.7"></circle>
            <circle cx="850" cy="50" r="1.6"></circle>
            <circle cx="950" cy="450" r="1.8"></circle>
            <circle cx="50" cy="550" r="1.9"></circle>
            <circle cx="400" cy="800" r="2"></circle>
            <circle cx="600" cy="600" r="1.9"></circle>
            <circle cx="800" cy="400" r="1.8"></circle>
            <circle cx="200" cy="700" r="1.7"></circle>
            
            <!-- Medium stars -->
            <circle cx="120" cy="180" r="1"></circle>
            <circle cx="320" cy="220" r="1.2"></circle>
            <circle cx="520" cy="120" r="1.1"></circle>
            <circle cx="720" cy="320" r="1"></circle>
            <circle cx="920" cy="180" r="1.1"></circle>
            <circle cx="170" cy="380" r="1.2"></circle>
            <circle cx="270" cy="480" r="1.1"></circle>
            <circle cx="370" cy="580" r="1"></circle>
            <circle cx="470" cy="680" r="1"></circle>
            <circle cx="570" cy="780" r="1.2"></circle>
            <circle cx="670" cy="880" r="1.1"></circle>
            <circle cx="770" cy="980" r="1"></circle>
            <circle cx="870" cy="80" r="1"></circle>
            <circle cx="970" cy="480" r="1.2"></circle>
            <circle cx="70" cy="580" r="1.1"></circle>
            <circle cx="420" cy="820" r="1.2"></circle>
            <circle cx="620" cy="620" r="1.1"></circle>
            <circle cx="820" cy="420" r="1"></circle>
            <circle cx="220" cy="720" r="1"></circle>
            
            <!-- Small stars (more of them) -->
            <circle cx="140" cy="190" r="0.7"></circle>
            <circle cx="340" cy="230" r="0.6"></circle>
            <circle cx="540" cy="130" r="0.7"></circle>
            <circle cx="740" cy="330" r="0.6"></circle>
            <circle cx="940" cy="190" r="0.7"></circle>
            <circle cx="190" cy="390" r="0.6"></circle>
            <circle cx="290" cy="490" r="0.7"></circle>
            <circle cx="390" cy="590" r="0.6"></circle>
            <circle cx="490" cy="690" r="0.6"></circle>
            <circle cx="590" cy="790" r="0.7"></circle>
            <circle cx="690" cy="890" r="0.6"></circle>
            <circle cx="790" cy="990" r="0.7"></circle>
            <circle cx="890" cy="90" r="0.6"></circle>
            <circle cx="990" cy="490" r="0.7"></circle>
            <circle cx="90" cy="590" r="0.6"></circle>
            <circle cx="440" cy="840" r="0.7"></circle>
            <circle cx="640" cy="640" r="0.6"></circle>
            <circle cx="840" cy="440" r="0.7"></circle>
            <circle cx="240" cy="740" r="0.6"></circle>
            <circle cx="160" cy="210" r="0.7"></circle>
            <circle cx="360" cy="250" r="0.6"></circle>
            <circle cx="560" cy="150" r="0.7"></circle>
            <circle cx="760" cy="350" r="0.6"></circle>
            <circle cx="960" cy="210" r="0.7"></circle>
            <circle cx="210" cy="410" r="0.6"></circle>
            <circle cx="310" cy="510" r="0.7"></circle>
            <circle cx="410" cy="610" r="0.6"></circle>
            <circle cx="510" cy="710" r="0.6"></circle>
            <circle cx="610" cy="810" r="0.7"></circle>
            <circle cx="710" cy="910" r="0.6"></circle>
            <circle cx="810" cy="10" r="0.7"></circle>
            <circle cx="910" cy="110" r="0.6"></circle>
            <circle cx="10" cy="510" r="0.7"></circle>
            <circle cx="110" cy="610" r="0.6"></circle>
            <circle cx="460" cy="860" r="0.7"></circle>
            <circle cx="660" cy="660" r="0.6"></circle>
            <circle cx="860" cy="460" r="0.7"></circle>
            <circle cx="260" cy="760" r="0.6"></circle>
        </g>
        
        <!-- Nebula-like shapes (subtle clouds) -->
        <path d="M300,200 C350,150 400,150 450,200 C500,250 550,250 600,200 C650,150 700,150 750,200 C700,250 650,300 600,300 C550,300 500,250 450,300 C400,350 350,350 300,300 C250,250 250,250 300,200 Z" id="nebula1" fill="#5522AA" opacity="0.1"></path>
        
        <path d="M150,500 C200,450 250,450 300,500 C350,550 400,550 450,500 C500,450 550,450 600,500 C550,550 500,600 450,600 C400,600 350,550 300,600 C250,650 200,650 150,600 C100,550 100,550 150,500 Z" id="nebula2" fill="#2244CC" opacity="0.1"></path>
        
        <path d="M550,700 C600,650 650,650 700,700 C750,750 800,750 850,700 C900,650 950,650 1000,700 C950,750 900,800 850,800 C800,800 750,750 700,800 C650,850 600,850 550,800 C500,750 500,750 550,700 Z" id="nebula3" fill="#6633CC" opacity="0.1"></path>
    </g>
</svg> 